<?xml version="1.0" encoding="UTF-8" standalone="no"?>
<svg
   version="1.1"
   viewBox="0 0 32 32"
   width="32"
   height="32"
   id="svg19"
   sodipodi:docname="292635061_480059574125149_4975030959391579285_n.svg"
   inkscape:version="1.3.2 (091e20e, 2023-11-25, custom)"
   xmlns:inkscape="http://www.inkscape.org/namespaces/inkscape"
   xmlns:sodipodi="http://sodipodi.sourceforge.net/DTD/sodipodi-0.dtd"
   xmlns="http://www.w3.org/2000/svg"
   xmlns:svg="http://www.w3.org/2000/svg">
  <defs
     id="defs19" />
  <sodipodi:namedview
     id="namedview19"
     pagecolor="#ffffff"
     bordercolor="#000000"
     borderopacity="0.25"
     inkscape:showpageshadow="2"
     inkscape:pageopacity="0.0"
     inkscape:pagecheckerboard="0"
     inkscape:deskcolor="#d1d1d1"
     inkscape:zoom="3.9786976"
     inkscape:cx="200.44248"
     inkscape:cy="125.04092"
     inkscape:window-width="2560"
     inkscape:window-height="1417"
     inkscape:window-x="2552"
     inkscape:window-y="-8"
     inkscape:window-maximized="1"
     inkscape:current-layer="svg19" />
  <g
     stroke-width="2.9"
     fill="none"
     stroke-linecap="butt"
     id="g12"
     transform="scale(0.12030075,0.14746544)">
    <path
       stroke="#e0e3e9"
       vector-effect="non-scaling-stroke"
       d="m 38.38,47.21 -10,3.19 a 0.9,0.9 0 0 0 -0.51,1.31 q 1.84,3.12 3.11,6.33 20.2,50.85 41.37,103.21 3.02,7.47 5.39,14.08 a 1.14,1.13 -12.7 0 0 1.17,0.74 q 4.36,-0.39 8.07,-4.06"
       id="path1" />
    <path
       stroke="#9594ac"
       vector-effect="non-scaling-stroke"
       d="m 86.98,172.01 q 5.48,13.75 10.47,27.24 0.82,2.22 2.65,3.6 c 2.23,1.68 4.38,-0.62 5.24,-2.55 q 16.76,-37.68 33.26,-74.98 0.18,-0.39 0.48,-0.68 0.37,-0.35 0.54,0.13 14.42,38.71 27.92,75.15 c 1.38,3.72 5.28,5.2 7.24,0.78 q 37.26,-84.01 74.99,-168.96 a 3.48,3.48 0 0 0 -3.19,-4.89 q -33.95,0.05 -68.64,0.1 -2.45,0 -3.46,2.28 -1.11,2.53 -2.42,5.06"
       id="path2" />
    <path
       stroke="#ffed8d"
       vector-effect="non-scaling-stroke"
       d="m 172.06,34.29 -2.27,-1.3 q -0.42,-0.25 -0.9,-0.25 -26.57,0.03 -53.14,0.12 -0.99,0 -2.9,1.81"
       id="path3" />
    <path
       stroke="#9594ac"
       vector-effect="non-scaling-stroke"
       d="m 112.85,34.67 -2.46,-6.2 a 2.42,2.42 0 0 0 -2.19,-1.53 l -3.46,-0.07 q -1.49,-0.03 -0.97,1.36 l 32.03,86.27 a 2.64,2.63 -43.4 0 1 -0.06,2 l -33.41,75.23 a 0.48,0.48 0 0 1 -0.89,-0.02 l -8.6,-22"
       id="path4" />
    <path
       stroke="#e0e3e9"
       vector-effect="non-scaling-stroke"
       d="m 92.84,169.71 q 1.08,-0.47 2.7,-0.29 0.5,0.06 0.97,-0.12 l 6.92,-2.66 a 0.98,0.97 -22.5 0 0 0.55,-1.31 Q 100.23,156.78 94.67,142.82 74.65,92.45 54.09,41.34 a 1.21,1.21 0 0 0 -1.64,-0.65 l -8.33,3.92"
       id="path5" />
    <path
       stroke="#9594ac"
       vector-effect="non-scaling-stroke"
       d="M 44.12,44.61 37.67,28.29 q -0.5,-1.25 -1.84,-1.32 l -4.09,-0.2 Q 30.42,26.7 30.9,27.93 l 7.48,19.28"
       id="path6" />
    <path
       stroke="#767796"
       vector-effect="non-scaling-stroke"
       d="m 44.12,44.61 48.72,125.1"
       id="path7" />
    <path
       stroke="#95823a"
       vector-effect="non-scaling-stroke"
       d="m 112.85,34.67 26.78,71.99 q 0.21,0.56 0.45,0.01 l 31.98,-72.38"
       id="path8" />
    <path
       stroke="#767796"
       vector-effect="non-scaling-stroke"
       d="M 86.98,172.01 38.38,47.21"
       id="path9" />
    <path
       stroke="#9594ac"
       vector-effect="non-scaling-stroke"
       d="m 144,118.68 27.01,72.77 a 0.62,0.62 0 0 0 0.64,0.39 q 0.27,-0.04 0.39,-0.29 Q 206.8,113.13 242.01,34 a 0.61,0.61 0 0 0 -0.56,-0.86 l -29.2,0.01"
       id="path10" />
    <path
       stroke="#95823a"
       vector-effect="non-scaling-stroke"
       d="m 212.25,33.15 -31.98,0.09 q -0.69,0 -0.97,0.63 -18.11,40.63 -36.14,81.37 -0.4,0.91 0.84,3.44"
       id="path11" />
    <path
       stroke="#ffed8d"
       vector-effect="non-scaling-stroke"
       d="m 212.25,33.15 q -0.93,1.64 -4.53,6.31 -12.94,16.77 -26.18,33.28 c -7.4,9.22 -14.91,19.09 -22.46,28.57 q -0.63,0.79 -5.36,7.61 -4.09,5.88 -9.72,9.76"
       id="path12" />
  </g>
  <path
     fill="#ffffff"
     d="M 0,0 H 32 V 32 H 0 Z M 4.6171429,6.9618433 3.4141353,7.4322581 A 0.10827068,0.13271889 0 0 0 3.3527823,7.6254378 Q 3.5741356,8.08553 3.7269176,8.558894 q 2.4300752,7.498618 4.9768421,15.219908 0.3633083,1.101567 0.6484211,2.076313 a 0.13708193,0.16671001 0.54981379 0 0 0.1407518,0.109125 q 0.5245114,-0.05751 0.9708264,-0.59871 0.659249,2.02765 1.259549,4.016958 0.09865,0.327374 0.318797,0.530876 c 0.268271,0.247742 0.526918,-0.09143 0.630376,-0.376037 q 2.016241,-5.556498 4.001203,-11.056958 0.02165,-0.05751 0.05774,-0.100277 0.04451,-0.05161 0.06496,0.01917 1.734737,5.708387 3.358797,11.082027 c 0.166015,0.548572 0.635188,0.766821 0.870977,0.115023 q 4.482406,-12.388571 9.021354,-24.91576 a 0.41864662,0.51317972 0 0 0 -0.38376,-0.721106 q -4.08421,0.00737 -8.257443,0.014747 -0.294737,0 -0.416241,0.3362212 -0.133534,0.3730876 -0.291128,0.7461752 L 20.425858,4.8648848 q -0.05053,-0.036866 -0.108271,-0.036866 -3.196391,0.00442 -6.392782,0.017696 -0.119098,0 -0.348872,0.2669124 L 13.28,4.198341 A 0.29112782,0.35686636 0 0 0 13.016541,3.9727189 l -0.41624,-0.010323 q -0.179248,-0.00442 -0.116692,0.200553 l 3.853233,12.7218441 a 0.31701982,0.38853652 0.52999247 0 1 -0.0072,0.294931 l -4.019248,11.093824 a 0.05774436,0.07078341 0 0 1 -0.107068,-0.0029 l -1.034586,-3.24424 q 0.129925,-0.06931 0.324812,-0.04276 0.06015,0.0088 0.116692,-0.01769 L 12.442725,24.5737 a 0.1177098,0.14326621 1.0509155 0 0 0.06616,-0.19318 q -0.451128,-1.26083 -1.12,-3.319447 Q 8.9804511,13.63318 6.5070677,6.0962212 A 0.14556391,0.17843318 0 0 0 6.3097744,6.0003687 L 5.3076692,6.5784332 4.5317293,4.1717972 Q 4.4715793,3.9874654 4.3103759,3.9771429 l -0.49203,-0.029493 Q 3.6595489,3.9373272 3.7172932,4.1187097 Z"
     id="path13"
     style="stroke-width:0.133192" />
  <path
     fill="#2b2859"
     d="m 5.3076692,6.5784332 5.8610528,18.4479258 1.034586,3.24424 a 0.05774436,0.07078341 0 0 0 0.107068,0.0029 l 4.019248,-11.093824 a 0.31701982,0.38853652 0.52999247 0 0 0.0072,-0.294931 L 12.483609,4.1629493 q -0.06256,-0.2049769 0.116692,-0.200553 l 0.41624,0.010323 A 0.29112782,0.35686636 0 0 1 13.28,4.198341 l 0.29594,0.9142857 3.221654,10.6160373 q 0.02526,0.08258 0.05413,0.0015 L 20.698942,5.0565899 q 0.157594,-0.3730876 0.291128,-0.7461752 0.121504,-0.3362212 0.416241,-0.3362212 4.173233,-0.00737 8.257443,-0.014747 a 0.41864662,0.51317972 0 0 1 0.38376,0.721106 Q 25.508566,17.207741 21.02616,29.596312 c -0.235789,0.651798 -0.704962,0.433549 -0.870977,-0.115023 q -1.62406,-5.37364 -3.358797,-11.082027 -0.02045,-0.07078 -0.06496,-0.01917 -0.03609,0.04276 -0.05774,0.100277 -1.984962,5.50046 -4.001203,11.056958 c -0.103458,0.284608 -0.362105,0.623779 -0.630376,0.376037 Q 11.821957,29.709862 11.72331,29.382488 11.12301,27.39318 10.463761,25.36553 L 4.6171429,6.9618433 3.7172932,4.1187097 Q 3.6595489,3.9373272 3.8183459,3.9476498 l 0.49203,0.029493 q 0.161203,0.010323 0.2213534,0.1946543 z m 12.0156388,10.9227648 3.249324,10.73106 a 0.07458647,0.09142857 0 0 0 0.07699,0.05751 q 0.03248,-0.0059 0.04692,-0.04276 4.181653,-11.56424 8.417443,-23.2331801 a 0.07338346,0.08995392 0 0 0 -0.06737,-0.1268203 l -3.512782,0.00147 -3.847218,0.013272 q -0.08301,0 -0.116692,0.092903 -2.178647,5.9915204 -4.347669,11.9992624 -0.04812,0.134194 0.101052,0.507281 z"
     id="path14"
     style="stroke-width:0.133192" />
  <path
     fill="#ffdb1a"
     d="M 20.698947,5.0565899 16.851729,15.730138 q -0.02887,0.08111 -0.05413,-0.0015 L 13.57594,5.1126267 q 0.229774,-0.2669124 0.348872,-0.2669124 3.196391,-0.013272 6.392782,-0.017696 0.05774,0 0.108271,0.036866 z"
     id="path15"
     style="stroke-width:0.133192" />
  <path
     fill="#ffdb1a"
     d="m 25.533835,4.8884793 q -0.11188,0.2418433 -0.544963,0.9305069 -1.556692,2.4729954 -3.149474,4.9076498 c -0.890225,1.359631 -1.793684,2.815115 -2.701954,4.213088 q -0.07579,0.116497 -0.644812,1.122211 -0.49203,0.867097 -1.169324,1.439263 -0.149173,-0.373087 -0.101052,-0.507281 2.169022,-6.007742 4.347669,-11.9992626 0.03368,-0.092903 0.116692,-0.092903 z"
     id="path16"
     style="stroke-width:0.133192" />
  <path
     fill="#ffffff"
     d="m 17.323308,17.501198 q 0.677294,-0.572166 1.169324,-1.439263 0.569022,-1.005714 0.644812,-1.122211 c 0.90827,-1.397973 1.811729,-2.853457 2.701954,-4.213088 Q 23.43218,8.2919816 24.988872,5.8189862 25.421955,5.1303226 25.533835,4.8884793 l 3.512782,-0.00147 a 0.07338346,0.08995392 0 0 1 0.06737,0.1268203 Q 24.878197,16.68277 20.696543,28.24701 q -0.01444,0.03687 -0.04692,0.04276 a 0.07458647,0.09142857 0 0 1 -0.07699,-0.05751 z"
     id="path17"
     style="stroke-width:0.133192" />
  <path
     fill="#c1c6d3"
     d="M 11.168722,25.026359 5.3076692,6.5784332 6.3097744,6.0003687 a 0.14556391,0.17843318 0 0 1 0.1972933,0.095852 q 2.4733834,7.5369593 4.8818043,14.9647933 0.668872,2.058616 1.12,3.319447 a 0.1177098,0.14326621 1.0509155 0 1 -0.06616,0.19318 l -0.832481,0.392258 q -0.05654,0.02654 -0.116692,0.01769 -0.194887,-0.02654 -0.324812,0.04276 z"
     id="path18"
     style="stroke-width:0.133192" />
  <path
     fill="#c1c6d3"
     d="M 4.6171429,6.9618433 10.463759,25.36553 q -0.446315,0.541198 -0.9708267,0.59871 A 0.13708193,0.16671001 0.54981379 0 1 9.3521805,25.855115 Q 9.0670677,24.880369 8.7037594,23.778802 6.1569925,16.057512 3.7269173,8.558894 3.5741353,8.08553 3.352782,7.6254378 A 0.10827068,0.13271889 0 0 1 3.414135,7.4322581 Z"
     id="path19"
     style="stroke-width:0.133192" />
</svg>
